<?xml version="1.0" encoding="UTF-8" standalone="no"?>
<svg width="60px" height="81px" viewBox="0 0 60 81" version="1.1" xmlns="http://www.w3.org/2000/svg" xmlns:xlink="http://www.w3.org/1999/xlink">
    <!-- Generator: Sketch 39 (31667) - http://www.bohemiancoding.com/sketch -->
    <title>Group</title>
    <desc>Created with Sketch.</desc>
    <defs></defs>
    <g id="Page-1" stroke="none" stroke-width="1" fill="none" fill-rule="evenodd" stroke-linecap="round" stroke-linejoin="round">
        <g id="Group" transform="translate(2.000000, 2.000000)" stroke="#664628" stroke-width="4">
            <path d="M2.27,38.01 C6.36,49.5 44.85,49.488 52.25,39.306 C59.17,29.799 54.83,10.887 43.37,4.134 C33,-1.975 18.79,0.301 10.42,6.726 C2.46,12.835 -2.54,24.497 2.27,38.01 L2.27,38.01 Z M37.12,47.744 C37.34,52.318 39.01,56.613 41.33,61.471 C44,67.053 45.37,76.431 30.67,76.667 C11.33,76.977 14.06,65.385 16.27,60.836 C17.89,57.506 18.89,52.641 19.23,47.968 L37.12,47.744 Z M12.45,14.709 C10.86,12.418 7.81,12.682 5.86,13.697 C3.91,14.712 2.68,17.053 3.13,19.207 C3.77,22.258 7.81,23.91 10.52,22.362 C13.22,20.814 13.67,16.449 12.45,14.709 L12.45,14.709 Z M27.27,17.946 C29.2,16.571 28.76,14.323 27.72,12.949 C26.69,11.574 24.52,10.846 22.63,11.357 C19.96,12.08 19.36,15.8 20.92,17.694 C22.48,19.588 25.8,18.99 27.27,17.946 L27.27,17.946 Z M47.73,35.509 C45.8,34.733 42.79,35.328 40.71,37.027 C37.76,39.434 38,42.811 40.92,43.434 C42.99,43.874 46.79,42.387 47.86,41.296 C50.05,39.054 49.66,36.284 47.73,35.509 Z M54.66,23.942 C55.21,23.571 54.69,19.765 53.69,18.249 C52.69,16.734 52.55,15.495 50.77,16.028 C48.25,16.783 46.77,21.02 48.27,23.109 C49.77,25.198 53.18,24.926 54.66,23.942 L54.66,23.942 Z M2.35,32.928 C1.77,33.258 2.03,36.397 2.92,37.978 C3.81,39.559 3.37,40.558 5.18,40.15 C7.75,39.572 9.08,36.239 7.72,34.05 C6.37,31.862 3.89,32.048 2.35,32.928 L2.35,32.928 Z M39.21,27.226 C41.1,25.678 40.67,23.146 39.66,21.598 C38.65,20.049 36.53,19.229 34.69,19.805 C32.08,20.62 30.91,24.16 32.43,26.293 C33.96,28.426 37.78,28.402 39.21,27.226 L39.21,27.226 Z M16.67,61 C17.34,62.607 21.11,64.068 25.75,64.301 L16.67,61 Z M26.16,38.724 C28.58,36.735 28.03,33.483 26.73,31.494 C25.43,29.505 22.71,28.451 20.35,29.19 C16.99,30.237 15.49,34.785 17.44,37.525 C19.4,40.265 24.31,40.235 26.16,38.724 L26.16,38.724 Z" id="Stroke-103"></path>
            <path d="M39.87,9.131 C41.7,7.827 41.28,5.692 40.3,4.385 C39.31,3.078 37.26,2.385 35.47,2.868 C32.94,3.553 31.81,6.537 33.29,8.337 C34.77,10.137 38.48,10.121 39.87,9.131 L39.87,9.131 Z" id="Stroke-104"></path>
        </g>
    </g>
</svg>